<?xml version="1.0" encoding="UTF-8" standalone="no"?>
<!-- Generator: Adobe Illustrator 15.0.0, SVG Export Plug-In . SVG Version: 6.00 Build 0)  -->

<svg
   xmlns:dc="http://purl.org/dc/elements/1.1/"
   xmlns:cc="http://creativecommons.org/ns#"
   xmlns:rdf="http://www.w3.org/1999/02/22-rdf-syntax-ns#"
   xmlns:svg="http://www.w3.org/2000/svg"
   xmlns="http://www.w3.org/2000/svg"
   xmlns:sodipodi="http://sodipodi.sourceforge.net/DTD/sodipodi-0.dtd"
   xmlns:inkscape="http://www.inkscape.org/namespaces/inkscape"
   version="1.1"
   id="Layer_1"
   x="0px"
   y="0px"
   width="32px"
   height="32px"
   viewBox="0 0 32 32"
   enable-background="new 0 0 32 32"
   xml:space="preserve"
   inkscape:version="0.48.1 r9760"
   sodipodi:docname="info.svg"
   inkscape:export-filename="/home/christopher/Eclipse/radioreddit/res/drawable-xhdpi/info.png"
   inkscape:export-xdpi="180"
   inkscape:export-ydpi="180"><metadata
   id="metadata31"><rdf:RDF><cc:Work
       rdf:about=""><dc:format>image/svg+xml</dc:format><dc:type
         rdf:resource="http://purl.org/dc/dcmitype/StillImage" /><dc:title></dc:title></cc:Work></rdf:RDF></metadata><defs
   id="defs29" /><sodipodi:namedview
   pagecolor="#ffffff"
   bordercolor="#666666"
   borderopacity="1"
   objecttolerance="10"
   gridtolerance="10"
   guidetolerance="10"
   inkscape:pageopacity="0"
   inkscape:pageshadow="2"
   inkscape:window-width="640"
   inkscape:window-height="480"
   id="namedview27"
   showgrid="false"
   inkscape:zoom="10.21875"
   inkscape:cx="16"
   inkscape:cy="16.929664"
   inkscape:window-x="0"
   inkscape:window-y="25"
   inkscape:window-maximized="0"
   inkscape:current-layer="Layer_1" />
<radialGradient
   id="path21642_1_"
   cx="-21.3359"
   cy="-473.2378"
   r="14.5732"
   gradientTransform="matrix(0.893 0 0 -0.2717 35.3554 -100.5359)"
   gradientUnits="userSpaceOnUse">
	<stop
   offset="0"
   style="stop-color:#000000"
   id="stop4" />
	<stop
   offset="1"
   style="stop-color:#000000;stop-opacity:0"
   id="stop6" />
</radialGradient>

<radialGradient
   id="path2093_1_"
   cx="-15.5317"
   cy="77.1255"
   r="20.6846"
   gradientTransform="matrix(0.8841 0.0043 0.0046 -0.9649 30.5057 92.9265)"
   gradientUnits="userSpaceOnUse">
	<stop
   offset="0"
   style="stop-color:#9CBCDE"
   id="stop10" />
	<stop
   offset="1"
   style="stop-color:#204A87"
   id="stop12" />
</radialGradient>
<path
   id="path2093"
   rx="21.876116"
   cx="23.909048"
   type="arc"
   ry="21.876116"
   cy="23.825787"
   fill="url(#path2093_1_)"
   stroke="#3465A4"
   stroke-width="0.7033"
   d="  M30.395,15.107c0.002,7.982-6.47,14.443-14.434,14.446C7.984,29.555,1.522,23.089,1.519,15.112c0-0.003,0-0.005,0-0.005  C1.516,7.133,7.984,0.672,15.95,0.669C23.924,0.667,30.391,7.133,30.395,15.107L30.395,15.107z" />
<path
   id="path2209"
   rx="21.876116"
   cx="23.909048"
   type="arc"
   ry="21.876116"
   cy="23.825787"
   opacity="0.9602"
   fill="none"
   stroke="#FFFFFF"
   stroke-width="0.9024"
   enable-background="new    "
   d="  M29.111,15.107c0,7.277-5.894,13.17-13.152,13.17c-7.27,0-13.159-5.893-13.163-13.161c0-0.004,0-0.007,0-0.009  C2.795,7.849,8.689,1.959,15.948,1.959C23.218,1.956,29.111,7.842,29.111,15.107L29.111,15.107z" />
<g
   id="g16">
	<g
   id="g18">
		
			<radialGradient
   id="SVGID_1_"
   cx="15.9551"
   cy="14.7158"
   r="5.9694"
   gradientTransform="matrix(1 0 0 1.04 0 -0.5886)"
   gradientUnits="userSpaceOnUse">
			<stop
   offset="0"
   style="stop-color:#FFFFFF"
   id="stop21" />
			<stop
   offset="1"
   style="stop-color:#E9E9E9"
   id="stop23" />
		</radialGradient>
		<path
   fill="url(#SVGID_1_)"
   d="M14.062,6.489h3.786v3.088h-3.786V6.489z M14.062,11.099h3.786v11.844h-3.786V11.099z"
   id="path25" />
	</g>
</g>
</svg>